<?xml version="1.0" encoding="UTF-8"?><svg xmlns="http://www.w3.org/2000/svg" xmlns:xlink="http://www.w3.org/1999/xlink" stroke-dasharray="none" shape-rendering="auto" font-family="'Dialog'" width="1314" text-rendering="auto" fill-opacity="1" contentScriptType="text/ecmascript" color-interpolation="auto" color-rendering="auto" preserveAspectRatio="xMidYMid meet" font-size="12" fill="black" stroke="black" image-rendering="auto" stroke-miterlimit="10" zoomAndPan="magnify" version="1.0" stroke-linecap="square" stroke-linejoin="miter" contentStyleType="text/css" font-style="normal" height="422" stroke-width="1" stroke-dashoffset="0" font-weight="normal" stroke-opacity="1">
    <!--Generated by the Batik Graphics2D SVG Generator-->
    <defs id="genericDefs"/>
    <g>
        <defs id="defs1">
            <clipPath clipPathUnits="userSpaceOnUse" id="clipPath1">
                <path d="M28 38 L1286 38 L1286 400 L28 400 L28 38 Z"/>
            </clipPath>
            <clipPath clipPathUnits="userSpaceOnUse" id="clipPath2">
                <path d="M-1 -1 L1315 -1 L1315 423 L-1 423 L-1 -1 Z"/>
            </clipPath>
            <clipPath clipPathUnits="userSpaceOnUse" id="clipPath3">
                <path d="M1037 43 L1282 43 L1282 69 L1037 69 L1037 43 Z"/>
            </clipPath>
        </defs>
        <g font-size="13" fill="white" text-rendering="optimizeLegibility" stroke-linejoin="round" stroke="white" stroke-width="0" stroke-miterlimit="0">
            <rect x="29" y="39" clip-path="url(#clipPath1)" width="1256" height="360" stroke="none"/>
        </g>
        <g stroke-linecap="butt" font-size="13" fill="rgb(204,204,204)" text-rendering="optimizeLegibility" stroke-dasharray="3,3" stroke="rgb(204,204,204)">
            <line clip-path="url(#clipPath1)" fill="none" x1="29" x2="29" y1="39" y2="399"/>
            <line clip-path="url(#clipPath1)" fill="none" x1="91" x2="91" y1="39" y2="399"/>
            <line clip-path="url(#clipPath1)" fill="none" x1="154" x2="154" y1="39" y2="399"/>
            <line clip-path="url(#clipPath1)" fill="none" x1="217" x2="217" y1="39" y2="399"/>
            <line clip-path="url(#clipPath1)" fill="none" x1="280" x2="280" y1="39" y2="399"/>
            <line clip-path="url(#clipPath1)" fill="none" x1="343" x2="343" y1="39" y2="399"/>
            <line clip-path="url(#clipPath1)" fill="none" x1="405" x2="405" y1="39" y2="399"/>
            <line clip-path="url(#clipPath1)" fill="none" x1="468" x2="468" y1="39" y2="399"/>
            <line clip-path="url(#clipPath1)" fill="none" x1="531" x2="531" y1="39" y2="399"/>
            <line clip-path="url(#clipPath1)" fill="none" x1="594" x2="594" y1="39" y2="399"/>
            <line clip-path="url(#clipPath1)" fill="none" x1="657" x2="657" y1="39" y2="399"/>
            <line clip-path="url(#clipPath1)" fill="none" x1="719" x2="719" y1="39" y2="399"/>
            <line clip-path="url(#clipPath1)" fill="none" x1="782" x2="782" y1="39" y2="399"/>
            <line clip-path="url(#clipPath1)" fill="none" x1="845" x2="845" y1="39" y2="399"/>
            <line clip-path="url(#clipPath1)" fill="none" x1="908" x2="908" y1="39" y2="399"/>
            <line clip-path="url(#clipPath1)" fill="none" x1="971" x2="971" y1="39" y2="399"/>
            <line clip-path="url(#clipPath1)" fill="none" x1="1033" x2="1033" y1="39" y2="399"/>
            <line clip-path="url(#clipPath1)" fill="none" x1="1096" x2="1096" y1="39" y2="399"/>
            <line clip-path="url(#clipPath1)" fill="none" x1="1159" x2="1159" y1="39" y2="399"/>
            <line clip-path="url(#clipPath1)" fill="none" x1="1222" x2="1222" y1="39" y2="399"/>
            <line clip-path="url(#clipPath1)" fill="none" x1="1285" x2="1285" y1="39" y2="399"/>
            <line clip-path="url(#clipPath1)" fill="none" x1="29" x2="1285" y1="399" y2="399"/>
            <line clip-path="url(#clipPath1)" fill="none" x1="29" x2="1285" y1="309" y2="309"/>
            <line clip-path="url(#clipPath1)" fill="none" x1="29" x2="1285" y1="219" y2="219"/>
            <line clip-path="url(#clipPath1)" fill="none" x1="29" x2="1285" y1="129" y2="129"/>
            <line clip-path="url(#clipPath1)" fill="none" x1="29" x2="1285" y1="39" y2="39"/>
            <rect x="29" y="39" clip-path="url(#clipPath2)" fill="none" width="1256" stroke-dasharray="none" height="360" stroke="black"/>
            <text x="526" y="13" clip-path="url(#clipPath2)" fill="black" stroke-dasharray="none" stroke="none" xml:space="preserve">PacketDropQueue in Network.nodeRx.queue</text>
            <rect x="1038" y="44" clip-path="url(#clipPath3)" fill="white" width="242" stroke-dasharray="none" opacity="0.7529" height="23" stroke="none"/>
        </g>
        <g stroke-linecap="butt" font-size="13" fill="rgb(31,119,180)" text-rendering="optimizeLegibility" stroke="rgb(31,119,180)" stroke-width="2">
            <line clip-path="url(#clipPath3)" fill="none" x1="1044" x2="1058" y1="55" y2="55"/>
            <text x="1060" font-size="10" y="59" clip-path="url(#clipPath3)" fill="black" stroke="none" xml:space="preserve">PacketDropQueue in Network.nodeRx.queue</text>
        </g>
        <g text-rendering="optimizeLegibility" font-size="10" stroke-linecap="butt">
            <line clip-path="url(#clipPath2)" fill="none" x1="657" x2="657" y1="39" y2="399"/>
            <line clip-path="url(#clipPath2)" fill="none" x1="29" x2="1285" y1="37" y2="37"/>
            <line clip-path="url(#clipPath2)" fill="none" x1="29" x2="1285" y1="401" y2="401"/>
            <line clip-path="url(#clipPath2)" fill="none" x1="29" x2="29" y1="33" y2="37"/>
            <line clip-path="url(#clipPath2)" fill="none" x1="29" x2="29" y1="405" y2="401"/>
            <text xml:space="preserve" x="25" y="30" clip-path="url(#clipPath2)" stroke="none">-1</text>
            <text xml:space="preserve" x="25" y="416" clip-path="url(#clipPath2)" stroke="none">-1</text>
            <line clip-path="url(#clipPath2)" fill="none" x1="41" x2="41" y1="35" y2="37"/>
            <line clip-path="url(#clipPath2)" fill="none" x1="41" x2="41" y1="403" y2="401"/>
            <line clip-path="url(#clipPath2)" fill="none" x1="54" x2="54" y1="35" y2="37"/>
            <line clip-path="url(#clipPath2)" fill="none" x1="54" x2="54" y1="403" y2="401"/>
            <line clip-path="url(#clipPath2)" fill="none" x1="66" x2="66" y1="35" y2="37"/>
            <line clip-path="url(#clipPath2)" fill="none" x1="66" x2="66" y1="403" y2="401"/>
            <line clip-path="url(#clipPath2)" fill="none" x1="79" x2="79" y1="35" y2="37"/>
            <line clip-path="url(#clipPath2)" fill="none" x1="79" x2="79" y1="403" y2="401"/>
            <line clip-path="url(#clipPath2)" fill="none" x1="91" x2="91" y1="33" y2="37"/>
            <line clip-path="url(#clipPath2)" fill="none" x1="91" x2="91" y1="405" y2="401"/>
            <text xml:space="preserve" x="82" y="30" clip-path="url(#clipPath2)" stroke="none">-0.9</text>
            <text xml:space="preserve" x="82" y="416" clip-path="url(#clipPath2)" stroke="none">-0.9</text>
            <line clip-path="url(#clipPath2)" fill="none" x1="104" x2="104" y1="35" y2="37"/>
            <line clip-path="url(#clipPath2)" fill="none" x1="104" x2="104" y1="403" y2="401"/>
            <line clip-path="url(#clipPath2)" fill="none" x1="116" x2="116" y1="35" y2="37"/>
            <line clip-path="url(#clipPath2)" fill="none" x1="116" x2="116" y1="403" y2="401"/>
            <line clip-path="url(#clipPath2)" fill="none" x1="129" x2="129" y1="35" y2="37"/>
            <line clip-path="url(#clipPath2)" fill="none" x1="129" x2="129" y1="403" y2="401"/>
            <line clip-path="url(#clipPath2)" fill="none" x1="142" x2="142" y1="35" y2="37"/>
            <line clip-path="url(#clipPath2)" fill="none" x1="142" x2="142" y1="403" y2="401"/>
            <line clip-path="url(#clipPath2)" fill="none" x1="154" x2="154" y1="33" y2="37"/>
            <line clip-path="url(#clipPath2)" fill="none" x1="154" x2="154" y1="405" y2="401"/>
            <text xml:space="preserve" x="145" y="30" clip-path="url(#clipPath2)" stroke="none">-0.8</text>
            <text xml:space="preserve" x="145" y="416" clip-path="url(#clipPath2)" stroke="none">-0.8</text>
            <line clip-path="url(#clipPath2)" fill="none" x1="167" x2="167" y1="35" y2="37"/>
            <line clip-path="url(#clipPath2)" fill="none" x1="167" x2="167" y1="403" y2="401"/>
            <line clip-path="url(#clipPath2)" fill="none" x1="179" x2="179" y1="35" y2="37"/>
            <line clip-path="url(#clipPath2)" fill="none" x1="179" x2="179" y1="403" y2="401"/>
            <line clip-path="url(#clipPath2)" fill="none" x1="192" x2="192" y1="35" y2="37"/>
            <line clip-path="url(#clipPath2)" fill="none" x1="192" x2="192" y1="403" y2="401"/>
            <line clip-path="url(#clipPath2)" fill="none" x1="204" x2="204" y1="35" y2="37"/>
            <line clip-path="url(#clipPath2)" fill="none" x1="204" x2="204" y1="403" y2="401"/>
            <line clip-path="url(#clipPath2)" fill="none" x1="217" x2="217" y1="33" y2="37"/>
            <line clip-path="url(#clipPath2)" fill="none" x1="217" x2="217" y1="405" y2="401"/>
            <text xml:space="preserve" x="208" y="30" clip-path="url(#clipPath2)" stroke="none">-0.7</text>
            <text xml:space="preserve" x="208" y="416" clip-path="url(#clipPath2)" stroke="none">-0.7</text>
            <line clip-path="url(#clipPath2)" fill="none" x1="229" x2="229" y1="35" y2="37"/>
            <line clip-path="url(#clipPath2)" fill="none" x1="229" x2="229" y1="403" y2="401"/>
            <line clip-path="url(#clipPath2)" fill="none" x1="242" x2="242" y1="35" y2="37"/>
            <line clip-path="url(#clipPath2)" fill="none" x1="242" x2="242" y1="403" y2="401"/>
            <line clip-path="url(#clipPath2)" fill="none" x1="255" x2="255" y1="35" y2="37"/>
            <line clip-path="url(#clipPath2)" fill="none" x1="255" x2="255" y1="403" y2="401"/>
            <line clip-path="url(#clipPath2)" fill="none" x1="267" x2="267" y1="35" y2="37"/>
            <line clip-path="url(#clipPath2)" fill="none" x1="267" x2="267" y1="403" y2="401"/>
            <line clip-path="url(#clipPath2)" fill="none" x1="280" x2="280" y1="33" y2="37"/>
            <line clip-path="url(#clipPath2)" fill="none" x1="280" x2="280" y1="405" y2="401"/>
            <text xml:space="preserve" x="271" y="30" clip-path="url(#clipPath2)" stroke="none">-0.6</text>
            <text xml:space="preserve" x="271" y="416" clip-path="url(#clipPath2)" stroke="none">-0.6</text>
            <line clip-path="url(#clipPath2)" fill="none" x1="292" x2="292" y1="35" y2="37"/>
            <line clip-path="url(#clipPath2)" fill="none" x1="292" x2="292" y1="403" y2="401"/>
            <line clip-path="url(#clipPath2)" fill="none" x1="305" x2="305" y1="35" y2="37"/>
            <line clip-path="url(#clipPath2)" fill="none" x1="305" x2="305" y1="403" y2="401"/>
            <line clip-path="url(#clipPath2)" fill="none" x1="317" x2="317" y1="35" y2="37"/>
            <line clip-path="url(#clipPath2)" fill="none" x1="317" x2="317" y1="403" y2="401"/>
            <line clip-path="url(#clipPath2)" fill="none" x1="330" x2="330" y1="35" y2="37"/>
            <line clip-path="url(#clipPath2)" fill="none" x1="330" x2="330" y1="403" y2="401"/>
            <line clip-path="url(#clipPath2)" fill="none" x1="343" x2="343" y1="33" y2="37"/>
            <line clip-path="url(#clipPath2)" fill="none" x1="343" x2="343" y1="405" y2="401"/>
            <text xml:space="preserve" x="334" y="30" clip-path="url(#clipPath2)" stroke="none">-0.5</text>
            <text xml:space="preserve" x="334" y="416" clip-path="url(#clipPath2)" stroke="none">-0.5</text>
            <line clip-path="url(#clipPath2)" fill="none" x1="355" x2="355" y1="35" y2="37"/>
            <line clip-path="url(#clipPath2)" fill="none" x1="355" x2="355" y1="403" y2="401"/>
            <line clip-path="url(#clipPath2)" fill="none" x1="368" x2="368" y1="35" y2="37"/>
            <line clip-path="url(#clipPath2)" fill="none" x1="368" x2="368" y1="403" y2="401"/>
            <line clip-path="url(#clipPath2)" fill="none" x1="380" x2="380" y1="35" y2="37"/>
            <line clip-path="url(#clipPath2)" fill="none" x1="380" x2="380" y1="403" y2="401"/>
            <line clip-path="url(#clipPath2)" fill="none" x1="393" x2="393" y1="35" y2="37"/>
            <line clip-path="url(#clipPath2)" fill="none" x1="393" x2="393" y1="403" y2="401"/>
            <line clip-path="url(#clipPath2)" fill="none" x1="405" x2="405" y1="33" y2="37"/>
            <line clip-path="url(#clipPath2)" fill="none" x1="405" x2="405" y1="405" y2="401"/>
            <text xml:space="preserve" x="396" y="30" clip-path="url(#clipPath2)" stroke="none">-0.4</text>
            <text xml:space="preserve" x="396" y="416" clip-path="url(#clipPath2)" stroke="none">-0.4</text>
            <line clip-path="url(#clipPath2)" fill="none" x1="418" x2="418" y1="35" y2="37"/>
            <line clip-path="url(#clipPath2)" fill="none" x1="418" x2="418" y1="403" y2="401"/>
            <line clip-path="url(#clipPath2)" fill="none" x1="430" x2="430" y1="35" y2="37"/>
            <line clip-path="url(#clipPath2)" fill="none" x1="430" x2="430" y1="403" y2="401"/>
            <line clip-path="url(#clipPath2)" fill="none" x1="443" x2="443" y1="35" y2="37"/>
            <line clip-path="url(#clipPath2)" fill="none" x1="443" x2="443" y1="403" y2="401"/>
            <line clip-path="url(#clipPath2)" fill="none" x1="456" x2="456" y1="35" y2="37"/>
            <line clip-path="url(#clipPath2)" fill="none" x1="456" x2="456" y1="403" y2="401"/>
            <line clip-path="url(#clipPath2)" fill="none" x1="468" x2="468" y1="33" y2="37"/>
            <line clip-path="url(#clipPath2)" fill="none" x1="468" x2="468" y1="405" y2="401"/>
            <text xml:space="preserve" x="459" y="30" clip-path="url(#clipPath2)" stroke="none">-0.3</text>
            <text xml:space="preserve" x="459" y="416" clip-path="url(#clipPath2)" stroke="none">-0.3</text>
            <line clip-path="url(#clipPath2)" fill="none" x1="481" x2="481" y1="35" y2="37"/>
            <line clip-path="url(#clipPath2)" fill="none" x1="481" x2="481" y1="403" y2="401"/>
            <line clip-path="url(#clipPath2)" fill="none" x1="493" x2="493" y1="35" y2="37"/>
            <line clip-path="url(#clipPath2)" fill="none" x1="493" x2="493" y1="403" y2="401"/>
            <line clip-path="url(#clipPath2)" fill="none" x1="506" x2="506" y1="35" y2="37"/>
            <line clip-path="url(#clipPath2)" fill="none" x1="506" x2="506" y1="403" y2="401"/>
            <line clip-path="url(#clipPath2)" fill="none" x1="518" x2="518" y1="35" y2="37"/>
            <line clip-path="url(#clipPath2)" fill="none" x1="518" x2="518" y1="403" y2="401"/>
            <line clip-path="url(#clipPath2)" fill="none" x1="531" x2="531" y1="33" y2="37"/>
            <line clip-path="url(#clipPath2)" fill="none" x1="531" x2="531" y1="405" y2="401"/>
            <text xml:space="preserve" x="522" y="30" clip-path="url(#clipPath2)" stroke="none">-0.2</text>
            <text xml:space="preserve" x="522" y="416" clip-path="url(#clipPath2)" stroke="none">-0.2</text>
            <line clip-path="url(#clipPath2)" fill="none" x1="543" x2="543" y1="35" y2="37"/>
            <line clip-path="url(#clipPath2)" fill="none" x1="543" x2="543" y1="403" y2="401"/>
            <line clip-path="url(#clipPath2)" fill="none" x1="556" x2="556" y1="35" y2="37"/>
            <line clip-path="url(#clipPath2)" fill="none" x1="556" x2="556" y1="403" y2="401"/>
            <line clip-path="url(#clipPath2)" fill="none" x1="569" x2="569" y1="35" y2="37"/>
            <line clip-path="url(#clipPath2)" fill="none" x1="569" x2="569" y1="403" y2="401"/>
            <line clip-path="url(#clipPath2)" fill="none" x1="581" x2="581" y1="35" y2="37"/>
            <line clip-path="url(#clipPath2)" fill="none" x1="581" x2="581" y1="403" y2="401"/>
            <line clip-path="url(#clipPath2)" fill="none" x1="594" x2="594" y1="33" y2="37"/>
            <line clip-path="url(#clipPath2)" fill="none" x1="594" x2="594" y1="405" y2="401"/>
            <text xml:space="preserve" x="585" y="30" clip-path="url(#clipPath2)" stroke="none">-0.1</text>
            <text xml:space="preserve" x="585" y="416" clip-path="url(#clipPath2)" stroke="none">-0.1</text>
            <line clip-path="url(#clipPath2)" fill="none" x1="606" x2="606" y1="35" y2="37"/>
            <line clip-path="url(#clipPath2)" fill="none" x1="606" x2="606" y1="403" y2="401"/>
            <line clip-path="url(#clipPath2)" fill="none" x1="619" x2="619" y1="35" y2="37"/>
            <line clip-path="url(#clipPath2)" fill="none" x1="619" x2="619" y1="403" y2="401"/>
            <line clip-path="url(#clipPath2)" fill="none" x1="631" x2="631" y1="35" y2="37"/>
            <line clip-path="url(#clipPath2)" fill="none" x1="631" x2="631" y1="403" y2="401"/>
            <line clip-path="url(#clipPath2)" fill="none" x1="644" x2="644" y1="35" y2="37"/>
            <line clip-path="url(#clipPath2)" fill="none" x1="644" x2="644" y1="403" y2="401"/>
            <line clip-path="url(#clipPath2)" fill="none" x1="657" x2="657" y1="33" y2="37"/>
            <line clip-path="url(#clipPath2)" fill="none" x1="657" x2="657" y1="405" y2="401"/>
            <text xml:space="preserve" x="655" y="30" clip-path="url(#clipPath2)" stroke="none">0</text>
            <text xml:space="preserve" x="655" y="416" clip-path="url(#clipPath2)" stroke="none">0</text>
            <line clip-path="url(#clipPath2)" fill="none" x1="669" x2="669" y1="35" y2="37"/>
            <line clip-path="url(#clipPath2)" fill="none" x1="669" x2="669" y1="403" y2="401"/>
            <line clip-path="url(#clipPath2)" fill="none" x1="682" x2="682" y1="35" y2="37"/>
            <line clip-path="url(#clipPath2)" fill="none" x1="682" x2="682" y1="403" y2="401"/>
            <line clip-path="url(#clipPath2)" fill="none" x1="694" x2="694" y1="35" y2="37"/>
            <line clip-path="url(#clipPath2)" fill="none" x1="694" x2="694" y1="403" y2="401"/>
            <line clip-path="url(#clipPath2)" fill="none" x1="707" x2="707" y1="35" y2="37"/>
            <line clip-path="url(#clipPath2)" fill="none" x1="707" x2="707" y1="403" y2="401"/>
            <line clip-path="url(#clipPath2)" fill="none" x1="719" x2="719" y1="33" y2="37"/>
            <line clip-path="url(#clipPath2)" fill="none" x1="719" x2="719" y1="405" y2="401"/>
            <text xml:space="preserve" x="712" y="30" clip-path="url(#clipPath2)" stroke="none">0.1</text>
            <text xml:space="preserve" x="712" y="416" clip-path="url(#clipPath2)" stroke="none">0.1</text>
            <line clip-path="url(#clipPath2)" fill="none" x1="732" x2="732" y1="35" y2="37"/>
            <line clip-path="url(#clipPath2)" fill="none" x1="732" x2="732" y1="403" y2="401"/>
            <line clip-path="url(#clipPath2)" fill="none" x1="744" x2="744" y1="35" y2="37"/>
            <line clip-path="url(#clipPath2)" fill="none" x1="744" x2="744" y1="403" y2="401"/>
            <line clip-path="url(#clipPath2)" fill="none" x1="757" x2="757" y1="35" y2="37"/>
            <line clip-path="url(#clipPath2)" fill="none" x1="757" x2="757" y1="403" y2="401"/>
            <line clip-path="url(#clipPath2)" fill="none" x1="770" x2="770" y1="35" y2="37"/>
            <line clip-path="url(#clipPath2)" fill="none" x1="770" x2="770" y1="403" y2="401"/>
            <line clip-path="url(#clipPath2)" fill="none" x1="782" x2="782" y1="33" y2="37"/>
            <line clip-path="url(#clipPath2)" fill="none" x1="782" x2="782" y1="405" y2="401"/>
            <text xml:space="preserve" x="775" y="30" clip-path="url(#clipPath2)" stroke="none">0.2</text>
            <text xml:space="preserve" x="775" y="416" clip-path="url(#clipPath2)" stroke="none">0.2</text>
            <line clip-path="url(#clipPath2)" fill="none" x1="795" x2="795" y1="35" y2="37"/>
            <line clip-path="url(#clipPath2)" fill="none" x1="795" x2="795" y1="403" y2="401"/>
            <line clip-path="url(#clipPath2)" fill="none" x1="807" x2="807" y1="35" y2="37"/>
            <line clip-path="url(#clipPath2)" fill="none" x1="807" x2="807" y1="403" y2="401"/>
            <line clip-path="url(#clipPath2)" fill="none" x1="820" x2="820" y1="35" y2="37"/>
            <line clip-path="url(#clipPath2)" fill="none" x1="820" x2="820" y1="403" y2="401"/>
            <line clip-path="url(#clipPath2)" fill="none" x1="832" x2="832" y1="35" y2="37"/>
            <line clip-path="url(#clipPath2)" fill="none" x1="832" x2="832" y1="403" y2="401"/>
            <line clip-path="url(#clipPath2)" fill="none" x1="845" x2="845" y1="33" y2="37"/>
            <line clip-path="url(#clipPath2)" fill="none" x1="845" x2="845" y1="405" y2="401"/>
            <text xml:space="preserve" x="838" y="30" clip-path="url(#clipPath2)" stroke="none">0.3</text>
            <text xml:space="preserve" x="838" y="416" clip-path="url(#clipPath2)" stroke="none">0.3</text>
            <line clip-path="url(#clipPath2)" fill="none" x1="857" x2="857" y1="35" y2="37"/>
            <line clip-path="url(#clipPath2)" fill="none" x1="857" x2="857" y1="403" y2="401"/>
            <line clip-path="url(#clipPath2)" fill="none" x1="870" x2="870" y1="35" y2="37"/>
            <line clip-path="url(#clipPath2)" fill="none" x1="870" x2="870" y1="403" y2="401"/>
            <line clip-path="url(#clipPath2)" fill="none" x1="883" x2="883" y1="35" y2="37"/>
            <line clip-path="url(#clipPath2)" fill="none" x1="883" x2="883" y1="403" y2="401"/>
            <line clip-path="url(#clipPath2)" fill="none" x1="895" x2="895" y1="35" y2="37"/>
            <line clip-path="url(#clipPath2)" fill="none" x1="895" x2="895" y1="403" y2="401"/>
            <line clip-path="url(#clipPath2)" fill="none" x1="908" x2="908" y1="33" y2="37"/>
            <line clip-path="url(#clipPath2)" fill="none" x1="908" x2="908" y1="405" y2="401"/>
            <text xml:space="preserve" x="901" y="30" clip-path="url(#clipPath2)" stroke="none">0.4</text>
            <text xml:space="preserve" x="901" y="416" clip-path="url(#clipPath2)" stroke="none">0.4</text>
            <line clip-path="url(#clipPath2)" fill="none" x1="920" x2="920" y1="35" y2="37"/>
            <line clip-path="url(#clipPath2)" fill="none" x1="920" x2="920" y1="403" y2="401"/>
            <line clip-path="url(#clipPath2)" fill="none" x1="933" x2="933" y1="35" y2="37"/>
            <line clip-path="url(#clipPath2)" fill="none" x1="933" x2="933" y1="403" y2="401"/>
            <line clip-path="url(#clipPath2)" fill="none" x1="945" x2="945" y1="35" y2="37"/>
            <line clip-path="url(#clipPath2)" fill="none" x1="945" x2="945" y1="403" y2="401"/>
            <line clip-path="url(#clipPath2)" fill="none" x1="958" x2="958" y1="35" y2="37"/>
            <line clip-path="url(#clipPath2)" fill="none" x1="958" x2="958" y1="403" y2="401"/>
            <line clip-path="url(#clipPath2)" fill="none" x1="971" x2="971" y1="33" y2="37"/>
            <line clip-path="url(#clipPath2)" fill="none" x1="971" x2="971" y1="405" y2="401"/>
            <text xml:space="preserve" x="964" y="30" clip-path="url(#clipPath2)" stroke="none">0.5</text>
            <text xml:space="preserve" x="964" y="416" clip-path="url(#clipPath2)" stroke="none">0.5</text>
            <line clip-path="url(#clipPath2)" fill="none" x1="983" x2="983" y1="35" y2="37"/>
            <line clip-path="url(#clipPath2)" fill="none" x1="983" x2="983" y1="403" y2="401"/>
            <line clip-path="url(#clipPath2)" fill="none" x1="996" x2="996" y1="35" y2="37"/>
            <line clip-path="url(#clipPath2)" fill="none" x1="996" x2="996" y1="403" y2="401"/>
            <line clip-path="url(#clipPath2)" fill="none" x1="1008" x2="1008" y1="35" y2="37"/>
            <line clip-path="url(#clipPath2)" fill="none" x1="1008" x2="1008" y1="403" y2="401"/>
            <line clip-path="url(#clipPath2)" fill="none" x1="1021" x2="1021" y1="35" y2="37"/>
            <line clip-path="url(#clipPath2)" fill="none" x1="1021" x2="1021" y1="403" y2="401"/>
            <line clip-path="url(#clipPath2)" fill="none" x1="1033" x2="1033" y1="33" y2="37"/>
            <line clip-path="url(#clipPath2)" fill="none" x1="1033" x2="1033" y1="405" y2="401"/>
            <text xml:space="preserve" x="1026" y="30" clip-path="url(#clipPath2)" stroke="none">0.6</text>
            <text xml:space="preserve" x="1026" y="416" clip-path="url(#clipPath2)" stroke="none">0.6</text>
            <line clip-path="url(#clipPath2)" fill="none" x1="1046" x2="1046" y1="35" y2="37"/>
            <line clip-path="url(#clipPath2)" fill="none" x1="1046" x2="1046" y1="403" y2="401"/>
            <line clip-path="url(#clipPath2)" fill="none" x1="1058" x2="1058" y1="35" y2="37"/>
            <line clip-path="url(#clipPath2)" fill="none" x1="1058" x2="1058" y1="403" y2="401"/>
            <line clip-path="url(#clipPath2)" fill="none" x1="1071" x2="1071" y1="35" y2="37"/>
            <line clip-path="url(#clipPath2)" fill="none" x1="1071" x2="1071" y1="403" y2="401"/>
            <line clip-path="url(#clipPath2)" fill="none" x1="1084" x2="1084" y1="35" y2="37"/>
            <line clip-path="url(#clipPath2)" fill="none" x1="1084" x2="1084" y1="403" y2="401"/>
            <line clip-path="url(#clipPath2)" fill="none" x1="1096" x2="1096" y1="33" y2="37"/>
            <line clip-path="url(#clipPath2)" fill="none" x1="1096" x2="1096" y1="405" y2="401"/>
            <text xml:space="preserve" x="1089" y="30" clip-path="url(#clipPath2)" stroke="none">0.7</text>
            <text xml:space="preserve" x="1089" y="416" clip-path="url(#clipPath2)" stroke="none">0.7</text>
            <line clip-path="url(#clipPath2)" fill="none" x1="1109" x2="1109" y1="35" y2="37"/>
            <line clip-path="url(#clipPath2)" fill="none" x1="1109" x2="1109" y1="403" y2="401"/>
            <line clip-path="url(#clipPath2)" fill="none" x1="1121" x2="1121" y1="35" y2="37"/>
            <line clip-path="url(#clipPath2)" fill="none" x1="1121" x2="1121" y1="403" y2="401"/>
            <line clip-path="url(#clipPath2)" fill="none" x1="1134" x2="1134" y1="35" y2="37"/>
            <line clip-path="url(#clipPath2)" fill="none" x1="1134" x2="1134" y1="403" y2="401"/>
            <line clip-path="url(#clipPath2)" fill="none" x1="1146" x2="1146" y1="35" y2="37"/>
            <line clip-path="url(#clipPath2)" fill="none" x1="1146" x2="1146" y1="403" y2="401"/>
            <line clip-path="url(#clipPath2)" fill="none" x1="1159" x2="1159" y1="33" y2="37"/>
            <line clip-path="url(#clipPath2)" fill="none" x1="1159" x2="1159" y1="405" y2="401"/>
            <text xml:space="preserve" x="1152" y="30" clip-path="url(#clipPath2)" stroke="none">0.8</text>
            <text xml:space="preserve" x="1152" y="416" clip-path="url(#clipPath2)" stroke="none">0.8</text>
            <line clip-path="url(#clipPath2)" fill="none" x1="1171" x2="1171" y1="35" y2="37"/>
            <line clip-path="url(#clipPath2)" fill="none" x1="1171" x2="1171" y1="403" y2="401"/>
            <line clip-path="url(#clipPath2)" fill="none" x1="1184" x2="1184" y1="35" y2="37"/>
            <line clip-path="url(#clipPath2)" fill="none" x1="1184" x2="1184" y1="403" y2="401"/>
            <line clip-path="url(#clipPath2)" fill="none" x1="1197" x2="1197" y1="35" y2="37"/>
            <line clip-path="url(#clipPath2)" fill="none" x1="1197" x2="1197" y1="403" y2="401"/>
            <line clip-path="url(#clipPath2)" fill="none" x1="1209" x2="1209" y1="35" y2="37"/>
            <line clip-path="url(#clipPath2)" fill="none" x1="1209" x2="1209" y1="403" y2="401"/>
            <line clip-path="url(#clipPath2)" fill="none" x1="1222" x2="1222" y1="33" y2="37"/>
            <line clip-path="url(#clipPath2)" fill="none" x1="1222" x2="1222" y1="405" y2="401"/>
            <text xml:space="preserve" x="1215" y="30" clip-path="url(#clipPath2)" stroke="none">0.9</text>
            <text xml:space="preserve" x="1215" y="416" clip-path="url(#clipPath2)" stroke="none">0.9</text>
            <line clip-path="url(#clipPath2)" fill="none" x1="1234" x2="1234" y1="35" y2="37"/>
            <line clip-path="url(#clipPath2)" fill="none" x1="1234" x2="1234" y1="403" y2="401"/>
            <line clip-path="url(#clipPath2)" fill="none" x1="1247" x2="1247" y1="35" y2="37"/>
            <line clip-path="url(#clipPath2)" fill="none" x1="1247" x2="1247" y1="403" y2="401"/>
            <line clip-path="url(#clipPath2)" fill="none" x1="1259" x2="1259" y1="35" y2="37"/>
            <line clip-path="url(#clipPath2)" fill="none" x1="1259" x2="1259" y1="403" y2="401"/>
            <line clip-path="url(#clipPath2)" fill="none" x1="1272" x2="1272" y1="35" y2="37"/>
            <line clip-path="url(#clipPath2)" fill="none" x1="1272" x2="1272" y1="403" y2="401"/>
            <line clip-path="url(#clipPath2)" fill="none" x1="1285" x2="1285" y1="33" y2="37"/>
            <line clip-path="url(#clipPath2)" fill="none" x1="1285" x2="1285" y1="405" y2="401"/>
            <text xml:space="preserve" x="1283" y="30" clip-path="url(#clipPath2)" stroke="none">1</text>
            <text xml:space="preserve" x="1283" y="416" clip-path="url(#clipPath2)" stroke="none">1</text>
            <line clip-path="url(#clipPath2)" fill="none" x1="29" x2="1285" y1="219" y2="219"/>
            <line clip-path="url(#clipPath2)" fill="none" x1="27" x2="27" y1="39" y2="399"/>
            <line clip-path="url(#clipPath2)" fill="none" x1="1287" x2="1287" y1="39" y2="399"/>
            <line clip-path="url(#clipPath2)" fill="none" x1="23" x2="27" y1="399" y2="399"/>
            <line clip-path="url(#clipPath2)" fill="none" x1="1291" x2="1287" y1="399" y2="399"/>
            <text xml:space="preserve" x="12" y="403" clip-path="url(#clipPath2)" stroke="none">-1</text>
            <text xml:space="preserve" x="1294" y="403" clip-path="url(#clipPath2)" stroke="none">-1</text>
            <line clip-path="url(#clipPath2)" fill="none" x1="25" x2="27" y1="381" y2="381"/>
            <line clip-path="url(#clipPath2)" fill="none" x1="1289" x2="1287" y1="381" y2="381"/>
            <line clip-path="url(#clipPath2)" fill="none" x1="25" x2="27" y1="363" y2="363"/>
            <line clip-path="url(#clipPath2)" fill="none" x1="1289" x2="1287" y1="363" y2="363"/>
            <line clip-path="url(#clipPath2)" fill="none" x1="25" x2="27" y1="345" y2="345"/>
            <line clip-path="url(#clipPath2)" fill="none" x1="1289" x2="1287" y1="345" y2="345"/>
            <line clip-path="url(#clipPath2)" fill="none" x1="25" x2="27" y1="327" y2="327"/>
            <line clip-path="url(#clipPath2)" fill="none" x1="1289" x2="1287" y1="327" y2="327"/>
            <line clip-path="url(#clipPath2)" fill="none" x1="23" x2="27" y1="309" y2="309"/>
            <line clip-path="url(#clipPath2)" fill="none" x1="1291" x2="1287" y1="309" y2="309"/>
            <text xml:space="preserve" x="2" y="313" clip-path="url(#clipPath2)" stroke="none">-0.5</text>
            <text xml:space="preserve" x="1294" y="313" clip-path="url(#clipPath2)" stroke="none">-0.5</text>
            <line clip-path="url(#clipPath2)" fill="none" x1="25" x2="27" y1="291" y2="291"/>
            <line clip-path="url(#clipPath2)" fill="none" x1="1289" x2="1287" y1="291" y2="291"/>
            <line clip-path="url(#clipPath2)" fill="none" x1="25" x2="27" y1="273" y2="273"/>
            <line clip-path="url(#clipPath2)" fill="none" x1="1289" x2="1287" y1="273" y2="273"/>
            <line clip-path="url(#clipPath2)" fill="none" x1="25" x2="27" y1="255" y2="255"/>
            <line clip-path="url(#clipPath2)" fill="none" x1="1289" x2="1287" y1="255" y2="255"/>
            <line clip-path="url(#clipPath2)" fill="none" x1="25" x2="27" y1="237" y2="237"/>
            <line clip-path="url(#clipPath2)" fill="none" x1="1289" x2="1287" y1="237" y2="237"/>
            <line clip-path="url(#clipPath2)" fill="none" x1="23" x2="27" y1="219" y2="219"/>
            <line clip-path="url(#clipPath2)" fill="none" x1="1291" x2="1287" y1="219" y2="219"/>
            <text xml:space="preserve" x="15" y="223" clip-path="url(#clipPath2)" stroke="none">0</text>
            <text xml:space="preserve" x="1294" y="223" clip-path="url(#clipPath2)" stroke="none">0</text>
            <line clip-path="url(#clipPath2)" fill="none" x1="25" x2="27" y1="201" y2="201"/>
            <line clip-path="url(#clipPath2)" fill="none" x1="1289" x2="1287" y1="201" y2="201"/>
            <line clip-path="url(#clipPath2)" fill="none" x1="25" x2="27" y1="183" y2="183"/>
            <line clip-path="url(#clipPath2)" fill="none" x1="1289" x2="1287" y1="183" y2="183"/>
            <line clip-path="url(#clipPath2)" fill="none" x1="25" x2="27" y1="165" y2="165"/>
            <line clip-path="url(#clipPath2)" fill="none" x1="1289" x2="1287" y1="165" y2="165"/>
            <line clip-path="url(#clipPath2)" fill="none" x1="25" x2="27" y1="147" y2="147"/>
            <line clip-path="url(#clipPath2)" fill="none" x1="1289" x2="1287" y1="147" y2="147"/>
            <line clip-path="url(#clipPath2)" fill="none" x1="23" x2="27" y1="129" y2="129"/>
            <line clip-path="url(#clipPath2)" fill="none" x1="1291" x2="1287" y1="129" y2="129"/>
            <text xml:space="preserve" x="6" y="133" clip-path="url(#clipPath2)" stroke="none">0.5</text>
            <text xml:space="preserve" x="1294" y="133" clip-path="url(#clipPath2)" stroke="none">0.5</text>
            <line clip-path="url(#clipPath2)" fill="none" x1="25" x2="27" y1="111" y2="111"/>
            <line clip-path="url(#clipPath2)" fill="none" x1="1289" x2="1287" y1="111" y2="111"/>
            <line clip-path="url(#clipPath2)" fill="none" x1="25" x2="27" y1="93" y2="93"/>
            <line clip-path="url(#clipPath2)" fill="none" x1="1289" x2="1287" y1="93" y2="93"/>
            <line clip-path="url(#clipPath2)" fill="none" x1="25" x2="27" y1="75" y2="75"/>
            <line clip-path="url(#clipPath2)" fill="none" x1="1289" x2="1287" y1="75" y2="75"/>
            <line clip-path="url(#clipPath2)" fill="none" x1="25" x2="27" y1="57" y2="57"/>
            <line clip-path="url(#clipPath2)" fill="none" x1="1289" x2="1287" y1="57" y2="57"/>
            <line clip-path="url(#clipPath2)" fill="none" x1="23" x2="27" y1="39" y2="39"/>
            <line clip-path="url(#clipPath2)" fill="none" x1="1291" x2="1287" y1="39" y2="39"/>
            <text xml:space="preserve" x="15" y="43" clip-path="url(#clipPath2)" stroke="none">1</text>
            <text xml:space="preserve" x="1294" y="43" clip-path="url(#clipPath2)" stroke="none">1</text>
        </g>
    </g>
</svg>
