<svg xmlns="http://www.w3.org/2000/svg" width="523" height="226" viewBox="0 0 523 226">
  <g fill="none" fill-rule="evenodd" transform="translate(0 1)">
    <path fill="#636363" d="M64.9112361 93.6684674C61.8875571 86.6718629 57.1476823 83.1003241 48.7571714 83.1003241 39.9242193 83.1003241 29.254045 89.2020374 27.7164129 99.0257756 26.3414723 107.810156 34.1546271 112.425066 40.6523625 115.10372L48.1103739 118.229819C62.8815618 124.482019 73.2799225 133.264393 70.3415572 152.020991 67.1472507 172.412872 49.2571498 187 29.3869757 187 11.4314015 187-.453006134 173.602716.013243583 155.590523L14.4630167 152.616916C12.3777893 164.970829 20.6968746 173.903689 32.6189791 173.903689 44.5390995 173.903689 54.6636625 163.778978 56.5068369 152.020991 58.3936602 139.962031 49.6440379 134.753203 40.7059316 130.734218L33.5653668 127.459639C21.768257 121.953851 11.4314015 114.656274 13.8797086 99.0257756 16.7248239 80.8671091 34.3252547 70 51.1042923 70 63.466854 70 72.6688377 76.1037197 77 86.9708288L64.9112361 93.6684674zM136.230235 134.842469C131.78724 128.749411 125.685229 125.482555 117.550569 125.482555 104.292655 125.482555 92.1861033 137.071782 90.1331472 149.850778 87.8426086 164.115983 96.2635868 174.517445 110.575391 174.517445 118.411551 174.517445 125.309565 170.952145 131.338473 165.303749L128.593076 182.393152C121.890002 185.662011 115.499643 187 108.420904 187 87.6293936 187 73.1388945 171.246583 76.4792632 150.445662 79.941469 128.899635 99.3684036 113 121.059479 113 127.386888 113 134.077779 114.484206 139 117.606848L136.230235 134.842469zM162.257136 92.6409987C157.21561 92.6409987 153.700729 88.5820879 154.50002 83.4714673 155.321291 78.2088656 160.129024 74 165.168552 74 170.210078 74 173.702978 78.2088656 172.879709 83.4714673 172.082416 88.5820879 167.296663 92.6409987 162.257136 92.6409987zM154.34216 186L141 186 151.992245 115.642844 165.334405 115.642844 154.34216 186z"/>
    <polygon fill="#636363" points="184.987 172.114 219 172.114 216.978 185 169 185 186.743 72 200.708 72"/>
    <path fill="#636363" d="M234.998416 150.001001C232.907565 163.078441 241.776493 174.223007 255.126395 174.223007 268.478318 174.223007 280.910186 163.078441 283.001037 150.001001 285.116153 136.775342 276.229025 125.778996 262.87508 125.778996 249.523157 125.778996 237.113532 136.775342 234.998416 150.001001M296.502596 150.001001C293.153999 170.954148 274.083578 187 253.082052 187 232.080526 187 218.146238 170.954148 221.496857 150.001001 224.847476 129.049858 243.917897 113 264.919423 113 285.920949 113 299.855237 129.049858 296.502596 150.001001M361.677404 150.033411C363.841809 136.444295 357.421416 124.944573 342.863266 124.944573 328.907912 124.944573 318.727119 137.040114 316.659809 150.033411 314.566203 163.173649 320.569897 175.420158 334.826649 175.420158 349.532464 175.420158 359.492771 163.773494 361.677404 150.033411L361.677404 150.033411zM369.084927 183.632807C365.257774 207.676947 355.59482 225 328.282865 225 308.774903 225 296.567256 213.051401 299.409301 193.341043L312.915591 193.341043C310.917057 205.883449 318.482359 213.051401 330.787101 213.051401 347.442903 213.051401 352.702204 201.702647 354.983932 187.364731L357.099789 174.075538 356.800414 174.075538C350.139306 181.990277 340.729203 187.364731 330.823512 187.364731 309.213852 187.364731 300.036372 169.596826 303.224317 149.586546 306.268644 130.472008 321.80381 113 342.064256 113 352.570722 113 360.117819 118.374454 364.290872 127.037994L364.590248 127.037994 366.49371 115.091407 380 115.091407 369.084927 183.632807zM418.260331 130.978725C417.169291 127.561646 414.183918 124.885668 410.32931 124.885668 406.622572 124.885668 402.594117 127.858086 401.982655 131.723833 401.021501 137.814887 408.606826 140.490865 416.17017 144.206388 423.737511 147.919908 430.793302 152.971417 429.05683 163.969766 426.964671 177.193423 414.447686 187 401.549037 187 391.46591 187 382.158101 181.205386 380 171.398809L392.239229 166.197077C394.231476 171.398809 397.052993 175.114332 403.427384 175.114332 409.062425 175.114332 414.563584 171.246583 415.502758 165.305752 416.090241 161.590229 414.593558 159.809582 411.808009 157.728488L399.866517 150.744106C392.816721 146.583922 387.793142 142.720179 389.297818 133.208039 391.082248 121.917255 401.682919 113 412.951003 113 421.39757 113 427.490209 117.606848 430 125.186114L418.260331 130.978725z"/>
    <path fill="#666" d="M466,75.5 C466,82.4030752 460.403976,88 453.495976,88 C446.589987,88 441,82.4030752 441,75.5 C441,68.5928997 446.589987,63 453.495976,63 C460.403976,63 466,68.5928997 466,75.5"/>
    <path stroke="#666" d="M466,75.5 C466,82.4030752 460.403976,88 453.495976,88 C446.589987,88 441,82.4030752 441,75.5 C441,68.5928997 446.589987,63 453.495976,63 C460.403976,63 466,68.5928997 466,75.5 Z"/>
    <path fill="#666" d="M391,72.0009639 C391,76.9727964 386.9713,81 382.003855,81 C377.034483,81 373,76.9727964 373,72.0009639 C373,67.0272036 377.034483,63 382.003855,63 C386.9713,63 391,67.0272036 391,72.0009639"/>
    <path stroke="#666" d="M391,72.0009639 C391,76.9727964 386.9713,81 382.003855,81 C377.034483,81 373,76.9727964 373,72.0009639 C373,67.0272036 377.034483,63 382.003855,63 C386.9713,63 391,67.0272036 391,72.0009639 Z"/>
    <path fill="#666" d="M474,128.005243 C474,134.071966 469.069399,139 463,139 C456.920114,139 452,134.071966 452,128.005243 C452,121.932228 456.920114,117 463,117 C469.069399,117 474,121.932228 474,128.005243"/>
    <path stroke="#666" d="M474,128.005243 C474,134.071966 469.069399,139 463,139 C456.920114,139 452,134.071966 452,128.005243 C452,121.932228 456.920114,117 463,117 C469.069399,117 474,121.932228 474,128.005243 Z"/>
    <path fill="#666" d="M522,94 C522,97.8635243 518.862036,101 515.000959,101 C511.13221,101 508,97.8635243 508,94 C508,90.1326391 511.13221,87 515.000959,87 C518.862036,87 522,90.1326391 522,94"/>
    <path stroke="#666" d="M522,94 C522,97.8635243 518.862036,101 515.000959,101 C511.13221,101 508,97.8635243 508,94 C508,90.1326391 511.13221,87 515.000959,87 C518.862036,87 522,90.1326391 522,94 Z"/>
    <path fill="#666" d="M466,8.99791859 C466,13.9703978 461.96785,18 457.001041,18 C452.030068,18 448,13.9703978 448,8.99791859 C448,4.03168363 452.030068,0 457.001041,0 C461.96785,0 466,4.03168363 466,8.99791859"/>
    <path stroke="#666" d="M466,8.99791859 C466,13.9703978 461.96785,18 457.001041,18 C452.030068,18 448,13.9703978 448,8.99791859 C448,4.03168363 452.030068,0 457.001041,0 C461.96785,0 466,4.03168363 466,8.99791859 Z"/>
    <g transform="translate(373 72)">
      <path fill="#666" d="M0.380642857,0.694225 L82.2538571,5.583725"/>
      <path stroke="#666" stroke-width="2" d="M0.380642857,0.694225 L82.2538571,5.583725"/>
    </g>
    <g transform="translate(453 4)">
      <path fill="#666" d="M3.939,0.693 L0.0223333333,72.957"/>
      <path stroke="#666" stroke-width="2" d="M3.939,0.693 L0.0223333333,72.957"/>
    </g>
    <g transform="translate(455 79)">
      <path fill="#666" d="M63.2317969,14.8706 L0.653046875,0.7466"/>
      <path stroke="#666" stroke-width="2" d="M63.2317969,14.8706 L0.653046875,0.7466"/>
    </g>
    <g transform="translate(454 80)">
      <path fill="#666" d="M9.6305,47.7818 L0.5005,0.6658"/>
      <path stroke="#666" stroke-width="2" d="M9.6305,47.7818 L0.5005,0.6658"/>
    </g>
  </g>
</svg>
