<svg xmlns="http://www.w3.org/2000/svg" xmlns:xlink="http://www.w3.org/1999/xlink" width="630" height="136" viewBox="0 0 630 136">
  <defs>
    <polygon id="sde_positiv-1" points="0 .164 66.048 .164 66.048 109.712 0 109.712"/>
    <polygon id="sde_positiv-2" points=".677 .136 56.835 .136 56.835 104 .677 104"/>
    <polygon id="sde_positiv-3" points="0 136 630 136 630 0 0 0"/>
  </defs>
  <g fill="none" fill-rule="evenodd">
    <mask id="sde_positiv-4" fill="#fff">
      <use xlink:href="#sde_positiv-1"/>
    </mask>
    <path fill="#3D3D3D" d="M32.8022429,109.71238 C8.53101429,109.71238 -0.000957142857,100.668854 -0.000957142857,77.0368542 L-0.000957142857,75.8712949 L20.0052429,75.8712949 L20.0052429,77.1830237 C20.0052429,86.3727186 21.1825286,95.4181424 32.9496429,95.4181424 C41.4816143,95.4181424 46.1888429,90.6040407 46.1888429,82.1432949 C46.1888429,73.0997695 39.5692429,69.3069559 30.4495857,63.7620068 L22.3579,58.8036339 C10.5907857,51.5103458 1.46921429,44.9460068 1.46921429,28.4611254 C1.46921429,7.89488814 15.2980143,0.163091525 34.4198143,0.163091525 C53.8383286,0.163091525 64.7229571,7.16404068 64.7229571,27.1493966 L64.7229571,31.2345492 L45.1589571,31.2345492 L45.1589571,28.6072949 C45.1589571,20.8773966 43.3939857,14.4573288 33.5373286,14.4573288 C25.7423571,14.4573288 21.3280143,19.4176 21.3280143,26.8570576 C21.3280143,35.3178034 28.3898143,39.8395661 36.4795857,44.6536678 L43.5413857,48.8849898 C57.3682714,57.1976678 66.0476429,63.1792271 66.0476429,80.5392271 C66.0476429,102.272922 52.3662429,109.71238 32.8022429,109.71238" mask="url(#sde_positiv-4)"/>
    <g transform="translate(70 32)">
      <mask id="sde_positiv-5" fill="#fff">
        <use xlink:href="#sde_positiv-2"/>
      </mask>
      <path fill="#3D3D3D" d="M29.1946774,11.8712818 C19.396871,11.8712818 18.9572258,26.6877364 18.9572258,39.8910091 C18.9572258,53.5352818 20.4208065,65.5644636 29.1946774,65.5644636 C37.8239032,65.5644636 38.5547419,48.6957364 38.5547419,37.5447364 C38.5547419,23.6064636 37.8239032,11.8712818 29.1946774,11.8712818 M35.4848387,77.3015545 C28.4638387,77.3015545 22.9064194,75.2473727 19.2503226,69.3807364 L19.2503226,104.000191 L1.1163871,104.000191 L1.1163871,19.2060091 C1.1163871,18.1808273 0.823290323,2.92337273 0.676741935,1.89628182 L18.3729355,1.89628182 L18.5194839,9.67200909 C22.9064194,3.07037273 29.9274194,0.1361 36.9465161,0.1361 C56.2509355,0.1361 56.8352258,16.7127364 56.8352258,38.2797364 C56.8352258,59.1098273 54.9339032,77.3015545 35.4848387,77.3015545" mask="url(#sde_positiv-5)"/>
    </g>
    <path fill="#3D3D3D" d="M165.756885 52.416681C165.02754 47.4576935 163.130104 43.8119932 157.584046 43.8119932 151.745489 43.8119932 149.411206 47.6038252 148.535613 53.4377049 148.096866 56.3546447 147.950617 58.9793212 147.950617 62.4788899L166.193732 62.4788899C166.193732 59.1254529 166.34188 55.9162497 165.756885 52.416681L165.756885 52.416681zM147.950617 72.5410988L147.950617 79.1056368C147.950617 91.6463905 150.2849 97.1880068 157.291548 97.1880068 165.02754 97.1880068 166.34188 89.7504745 166.34188 82.8974688L183.563153 82.8974688C182.833808 100.979839 175.097816 109 157.291548 109 131.604938 109 130 91.7925221 130 71.2297094 130 51.1052917 133.063628 32 158.31339 32 184 32 184 51.2495255 184 72.5410988L147.950617 72.5410988zM227.685824 108L208.695402 66.2147306 225.772031 34.1083192 245.645594 34.1083192 227.390805 65.6290003 248 108 227.685824 108zM190 108L208.252874 108 208.252874 2 190 2 190 108z"/>
    <path fill="#3D3D3D" d="M276.63876 109C260.801222 109 255.916279 104.44853 255.916279 88.738123L255.916279 46.0093326 246 46.0093326 246 34.116658 255.916279 34.116658 255.916279 21.4883342 274.271412 14 274.271412 34.116658 285.963683 34.116658 285.963683 46.0093326 274.271412 46.0093326 274.271412 86.0955187C274.271412 92.8482039 275.157482 96.2245464 281.968663 96.2245464 283.594409 96.2245464 285.224008 95.9321976 287 95.7850678L287 108.264351C283.594409 108.85287 280.192671 109 276.63876 109M324.942258 48.9341705C313.141613 48.9341705 309.354032 55.8063166 309.354032 66.7709285L309.354032 108 291.291936 108 291.291936 47.6194825C291.291936 46.7423896 291 35.1917808 291 34.314688L308.336049 34.314688 308.480121 43.8181126C312.559637 35.7758752 318.386976 33 327.126089 33L328 33 328 49.2271689C326.982017 49.0806697 325.962138 48.9341705 324.942258 48.9341705M369.665404 107.539799L369.5215 99.6615525C365.444831 105.933389 359.480359 109 352.0598 109 338.674768 109 333 102.139526 333 88.2780647L333 34 351.041106 34 351.041106 83.17211C351.041106 89.4477442 351.186904 97.3259912 359.480359 97.3259912 367.338314 97.3259912 369.375701 88.1318548 369.375701 81.7119095L369.375701 34 387.416807 34 387.416807 95.4290597C387.416807 100.098283 387.708404 103.307307 388 107.539799L369.665404 107.539799zM466.909118 108L466.909118 57.0394432C466.909118 49.3804096 465.597111 44.0769696 459.177582 44.0769696 451.297948 44.0769696 449.839741 54.2410975 449.839741 60.721376L449.839741 108 431.74696 108 431.74696 56.5966912C431.74696 50.704832 431.164057 44.0769696 424.159726 44.0769696 416.13579 44.0769696 414.675684 53.5031776 414.675684 60.721376L414.675684 108 396.584802 108 396.584802 43.9313023C396.584802 40.5426208 396.438601 37.1558559 396 33.7690911L413.94658 33.7690911 414.092781 42.1622112C418.032598 35.9771008 424.452127 32 431.89316 32 441.084802 32 445.315121 36.2722687 448.233434 42.3117119 453.048556 35.9771008 458.44658 32 466.472415 32 480.625379 32 485 40.9853727 485 56.7442752L485 108 466.909118 108z"/>
    <mask id="sde_positiv-6" fill="#fff">
      <use xlink:href="#sde_positiv-3"/>
    </mask>
    <polygon fill="#636363" points="500 108 510 108 510 96 500 96" mask="url(#sde_positiv-6)"/>
    <path fill="#636363" d="M545.426718 39.4724774C530.216408 39.4724774 529.483588 57.6220181 529.483588 69.3331197 529.483588 88.3627074 531.678243 101.830093 544.695801 101.830093 561.078623 101.830093 561.516412 86.0197251 561.516412 71.5294275 561.516412 53.6713309 560.345803 39.4724774 545.426718 39.4724774L545.426718 39.4724774zM561.956105 107.830414L561.807637 99.0489924C557.422134 105.927455 552.88626 109 544.549237 109 522.317174 109 521 86.6064231 521 69.1864452 521 52.9379584 524.365264 32.4473403 544.549237 32.4473403 553.619081 32.4473403 557.859923 35.6665599 561.078623 41.0820872L561.078623 2 569.415647 2 569.415647 93.6315602C569.415647 98.3156199 569.706872 103.146354 570 107.830414L561.956105 107.830414zM621.143815 56.052599C620.554171 47.1068339 617.012465 38.7470193 606.533318 38.7470193 595.464526 38.7470193 591.333177 46.0799891 590.297938 55.4666485 590.002156 58.6922391 589.856185 61.9197382 589.856185 65.1472374L621.291706 65.1472374C621.291706 63.2405126 621.291706 58.9861686 621.143815 56.052599L621.143815 56.052599zM589.708294 71.8942567L589.708294 76.1466921C589.708294 92.5743004 592.216682 102.252981 605.5 102.252981 618.193674 102.252981 620.702062 94.4810252 621.143815 84.947401L629.558247 84.947401C628.966682 98.439531 623.654124 109 605.5 109 584.393815 109 581 93.4541804 581 74.6808616 581 55.0257542 581.147891 32 606.385426 32 625.424976 32 630 45.0531443 630 62.2136678L630 71.8942567 589.708294 71.8942567z" mask="url(#sde_positiv-6)"/>
  </g>
</svg>
